<mxfile host="app.diagrams.net" modified="2023-06-07T07:03:05.888Z" agent="Mozilla/5.0 (Windows NT 10.0; Win64; x64) AppleWebKit/537.36 (KHTML, like Gecko) Chrome/114.0.0.0 Safari/537.36" etag="2EK3jilC09AkwVo-_OzM" version="21.3.7" type="github" pages="9">
  <diagram name="第 1 页" id="kwyOSzzmE3qTqtFp1BEB">
    <mxGraphModel dx="1290" dy="541" grid="1" gridSize="10" guides="1" tooltips="1" connect="1" arrows="1" fold="1" page="1" pageScale="1" pageWidth="827" pageHeight="1169" math="0" shadow="0">
      <root>
        <mxCell id="0" />
        <mxCell id="1" parent="0" />
        <mxCell id="wdXqx3TKlDPnlE5JwRqI-9" style="edgeStyle=orthogonalEdgeStyle;rounded=0;orthogonalLoop=1;jettySize=auto;html=1;exitX=0.5;exitY=1;exitDx=0;exitDy=0;entryX=0.5;entryY=0;entryDx=0;entryDy=0;" edge="1" parent="1" source="wdXqx3TKlDPnlE5JwRqI-2" target="wdXqx3TKlDPnlE5JwRqI-4">
          <mxGeometry relative="1" as="geometry" />
        </mxCell>
        <mxCell id="wdXqx3TKlDPnlE5JwRqI-2" value="&lt;font style=&quot;font-size: 18px;&quot;&gt;开始&lt;/font&gt;" style="rounded=1;whiteSpace=wrap;html=1;" vertex="1" parent="1">
          <mxGeometry x="260" y="130" width="80" height="40" as="geometry" />
        </mxCell>
        <mxCell id="wdXqx3TKlDPnlE5JwRqI-7" style="edgeStyle=orthogonalEdgeStyle;rounded=0;orthogonalLoop=1;jettySize=auto;html=1;exitX=1;exitY=0.5;exitDx=0;exitDy=0;entryX=0;entryY=0.5;entryDx=0;entryDy=0;" edge="1" parent="1" source="wdXqx3TKlDPnlE5JwRqI-3" target="wdXqx3TKlDPnlE5JwRqI-4">
          <mxGeometry relative="1" as="geometry" />
        </mxCell>
        <mxCell id="wdXqx3TKlDPnlE5JwRqI-20" style="edgeStyle=orthogonalEdgeStyle;rounded=0;orthogonalLoop=1;jettySize=auto;html=1;exitX=0.5;exitY=1;exitDx=0;exitDy=0;entryX=0.5;entryY=1;entryDx=0;entryDy=0;" edge="1" parent="1" source="wdXqx3TKlDPnlE5JwRqI-3" target="wdXqx3TKlDPnlE5JwRqI-6">
          <mxGeometry relative="1" as="geometry">
            <Array as="points">
              <mxPoint x="140" y="320" />
              <mxPoint x="495" y="320" />
            </Array>
          </mxGeometry>
        </mxCell>
        <mxCell id="wdXqx3TKlDPnlE5JwRqI-3" value="&lt;font style=&quot;font-size: 18px;&quot;&gt;注册&lt;/font&gt;" style="rounded=1;whiteSpace=wrap;html=1;" vertex="1" parent="1">
          <mxGeometry x="100" y="225" width="80" height="40" as="geometry" />
        </mxCell>
        <mxCell id="wdXqx3TKlDPnlE5JwRqI-8" style="edgeStyle=orthogonalEdgeStyle;rounded=0;orthogonalLoop=1;jettySize=auto;html=1;exitX=1;exitY=0.5;exitDx=0;exitDy=0;entryX=0;entryY=0.5;entryDx=0;entryDy=0;" edge="1" parent="1" source="wdXqx3TKlDPnlE5JwRqI-4" target="wdXqx3TKlDPnlE5JwRqI-6">
          <mxGeometry relative="1" as="geometry" />
        </mxCell>
        <mxCell id="wdXqx3TKlDPnlE5JwRqI-4" value="&lt;font style=&quot;font-size: 18px;&quot;&gt;是否有账号&lt;/font&gt;" style="rhombus;whiteSpace=wrap;html=1;" vertex="1" parent="1">
          <mxGeometry x="240" y="210" width="120" height="70" as="geometry" />
        </mxCell>
        <mxCell id="wdXqx3TKlDPnlE5JwRqI-14" style="edgeStyle=orthogonalEdgeStyle;rounded=0;orthogonalLoop=1;jettySize=auto;html=1;exitX=1;exitY=0.5;exitDx=0;exitDy=0;entryX=0;entryY=0.5;entryDx=0;entryDy=0;" edge="1" parent="1" source="wdXqx3TKlDPnlE5JwRqI-6" target="wdXqx3TKlDPnlE5JwRqI-12">
          <mxGeometry relative="1" as="geometry" />
        </mxCell>
        <mxCell id="wdXqx3TKlDPnlE5JwRqI-6" value="&lt;font style=&quot;font-size: 18px;&quot;&gt;输入账号信息&lt;/font&gt;" style="rounded=1;whiteSpace=wrap;html=1;" vertex="1" parent="1">
          <mxGeometry x="440" y="220" width="110" height="50" as="geometry" />
        </mxCell>
        <mxCell id="wdXqx3TKlDPnlE5JwRqI-10" value="&lt;font style=&quot;font-size: 14px;&quot;&gt;否&lt;/font&gt;" style="text;html=1;strokeColor=none;fillColor=none;align=center;verticalAlign=middle;whiteSpace=wrap;rounded=0;" vertex="1" parent="1">
          <mxGeometry x="180" y="220" width="60" height="30" as="geometry" />
        </mxCell>
        <mxCell id="wdXqx3TKlDPnlE5JwRqI-11" value="&lt;font style=&quot;font-size: 14px;&quot;&gt;是&lt;/font&gt;" style="text;html=1;strokeColor=none;fillColor=none;align=center;verticalAlign=middle;whiteSpace=wrap;rounded=0;" vertex="1" parent="1">
          <mxGeometry x="370" y="220" width="60" height="30" as="geometry" />
        </mxCell>
        <mxCell id="wdXqx3TKlDPnlE5JwRqI-15" style="edgeStyle=orthogonalEdgeStyle;rounded=0;orthogonalLoop=1;jettySize=auto;html=1;exitX=0.5;exitY=1;exitDx=0;exitDy=0;entryX=0.5;entryY=0;entryDx=0;entryDy=0;" edge="1" parent="1" source="wdXqx3TKlDPnlE5JwRqI-12" target="wdXqx3TKlDPnlE5JwRqI-13">
          <mxGeometry relative="1" as="geometry" />
        </mxCell>
        <mxCell id="wdXqx3TKlDPnlE5JwRqI-16" style="edgeStyle=orthogonalEdgeStyle;rounded=0;orthogonalLoop=1;jettySize=auto;html=1;exitX=0.5;exitY=0;exitDx=0;exitDy=0;entryX=0.5;entryY=0;entryDx=0;entryDy=0;" edge="1" parent="1" source="wdXqx3TKlDPnlE5JwRqI-12" target="wdXqx3TKlDPnlE5JwRqI-6">
          <mxGeometry relative="1" as="geometry">
            <Array as="points">
              <mxPoint x="690" y="220" />
              <mxPoint x="690" y="160" />
              <mxPoint x="495" y="160" />
            </Array>
          </mxGeometry>
        </mxCell>
        <mxCell id="wdXqx3TKlDPnlE5JwRqI-12" value="&lt;font style=&quot;font-size: 18px;&quot;&gt;登录验证&lt;/font&gt;" style="rhombus;whiteSpace=wrap;html=1;" vertex="1" parent="1">
          <mxGeometry x="630" y="220" width="130" height="50" as="geometry" />
        </mxCell>
        <mxCell id="wdXqx3TKlDPnlE5JwRqI-13" value="&lt;font style=&quot;font-size: 18px;&quot;&gt;结束&lt;/font&gt;" style="rounded=1;whiteSpace=wrap;html=1;" vertex="1" parent="1">
          <mxGeometry x="655" y="300" width="80" height="40" as="geometry" />
        </mxCell>
        <mxCell id="wdXqx3TKlDPnlE5JwRqI-18" value="&lt;font style=&quot;font-size: 14px;&quot;&gt;否&lt;/font&gt;" style="text;html=1;strokeColor=none;fillColor=none;align=center;verticalAlign=middle;whiteSpace=wrap;rounded=0;" vertex="1" parent="1">
          <mxGeometry x="690" y="170" width="60" height="30" as="geometry" />
        </mxCell>
        <mxCell id="wdXqx3TKlDPnlE5JwRqI-19" value="是" style="text;html=1;strokeColor=none;fillColor=none;align=center;verticalAlign=middle;whiteSpace=wrap;rounded=0;" vertex="1" parent="1">
          <mxGeometry x="700" y="270" width="60" height="30" as="geometry" />
        </mxCell>
      </root>
    </mxGraphModel>
  </diagram>
  <diagram id="G9earCbk9m2NpwL-4ERK" name="第 2 页">
    <mxGraphModel dx="1290" dy="541" grid="1" gridSize="10" guides="1" tooltips="1" connect="1" arrows="1" fold="1" page="1" pageScale="1" pageWidth="827" pageHeight="1169" math="0" shadow="0">
      <root>
        <mxCell id="0" />
        <mxCell id="1" parent="0" />
        <mxCell id="ru4KaHA4FuWsfrp8raAA-3" style="edgeStyle=orthogonalEdgeStyle;rounded=0;orthogonalLoop=1;jettySize=auto;html=1;exitX=1;exitY=0.5;exitDx=0;exitDy=0;entryX=0;entryY=0.5;entryDx=0;entryDy=0;" edge="1" parent="1" source="ru4KaHA4FuWsfrp8raAA-1" target="ru4KaHA4FuWsfrp8raAA-2">
          <mxGeometry relative="1" as="geometry" />
        </mxCell>
        <mxCell id="ru4KaHA4FuWsfrp8raAA-1" value="开始" style="rounded=1;whiteSpace=wrap;html=1;" vertex="1" parent="1">
          <mxGeometry x="80" y="120" width="70" height="40" as="geometry" />
        </mxCell>
        <mxCell id="ru4KaHA4FuWsfrp8raAA-5" style="edgeStyle=orthogonalEdgeStyle;rounded=0;orthogonalLoop=1;jettySize=auto;html=1;exitX=0.5;exitY=0;exitDx=0;exitDy=0;entryX=0.5;entryY=1;entryDx=0;entryDy=0;" edge="1" parent="1" source="ru4KaHA4FuWsfrp8raAA-2" target="ru4KaHA4FuWsfrp8raAA-4">
          <mxGeometry relative="1" as="geometry" />
        </mxCell>
        <mxCell id="ru4KaHA4FuWsfrp8raAA-10" style="edgeStyle=orthogonalEdgeStyle;rounded=0;orthogonalLoop=1;jettySize=auto;html=1;exitX=1;exitY=0.5;exitDx=0;exitDy=0;entryX=0;entryY=0.5;entryDx=0;entryDy=0;" edge="1" parent="1" source="ru4KaHA4FuWsfrp8raAA-2" target="ru4KaHA4FuWsfrp8raAA-7">
          <mxGeometry relative="1" as="geometry" />
        </mxCell>
        <mxCell id="ru4KaHA4FuWsfrp8raAA-2" value="点击用户管理" style="rounded=0;whiteSpace=wrap;html=1;" vertex="1" parent="1">
          <mxGeometry x="200" y="115" width="100" height="50" as="geometry" />
        </mxCell>
        <mxCell id="ru4KaHA4FuWsfrp8raAA-8" style="edgeStyle=orthogonalEdgeStyle;rounded=0;orthogonalLoop=1;jettySize=auto;html=1;exitX=1;exitY=0.5;exitDx=0;exitDy=0;entryX=0;entryY=0.5;entryDx=0;entryDy=0;" edge="1" parent="1" source="ru4KaHA4FuWsfrp8raAA-4" target="ru4KaHA4FuWsfrp8raAA-6">
          <mxGeometry relative="1" as="geometry" />
        </mxCell>
        <mxCell id="ru4KaHA4FuWsfrp8raAA-4" value="条件查询" style="rhombus;whiteSpace=wrap;html=1;" vertex="1" parent="1">
          <mxGeometry x="210" y="20" width="80" height="60" as="geometry" />
        </mxCell>
        <mxCell id="ru4KaHA4FuWsfrp8raAA-9" style="edgeStyle=orthogonalEdgeStyle;rounded=0;orthogonalLoop=1;jettySize=auto;html=1;exitX=0.5;exitY=1;exitDx=0;exitDy=0;" edge="1" parent="1" source="ru4KaHA4FuWsfrp8raAA-6" target="ru4KaHA4FuWsfrp8raAA-7">
          <mxGeometry relative="1" as="geometry" />
        </mxCell>
        <mxCell id="ru4KaHA4FuWsfrp8raAA-6" value="筛选成功" style="rounded=0;whiteSpace=wrap;html=1;" vertex="1" parent="1">
          <mxGeometry x="350" y="25" width="100" height="50" as="geometry" />
        </mxCell>
        <mxCell id="ru4KaHA4FuWsfrp8raAA-13" style="edgeStyle=orthogonalEdgeStyle;rounded=0;orthogonalLoop=1;jettySize=auto;html=1;exitX=1;exitY=0.5;exitDx=0;exitDy=0;entryX=0;entryY=0.5;entryDx=0;entryDy=0;" edge="1" parent="1" source="ru4KaHA4FuWsfrp8raAA-7" target="ru4KaHA4FuWsfrp8raAA-12">
          <mxGeometry relative="1" as="geometry" />
        </mxCell>
        <mxCell id="ru4KaHA4FuWsfrp8raAA-7" value="显示用户信息" style="rounded=0;whiteSpace=wrap;html=1;" vertex="1" parent="1">
          <mxGeometry x="350" y="115" width="100" height="50" as="geometry" />
        </mxCell>
        <mxCell id="ru4KaHA4FuWsfrp8raAA-20" style="edgeStyle=orthogonalEdgeStyle;rounded=0;orthogonalLoop=1;jettySize=auto;html=1;exitX=1;exitY=0.5;exitDx=0;exitDy=0;entryX=0;entryY=0.5;entryDx=0;entryDy=0;" edge="1" parent="1" source="ru4KaHA4FuWsfrp8raAA-11" target="ru4KaHA4FuWsfrp8raAA-16">
          <mxGeometry relative="1" as="geometry" />
        </mxCell>
        <mxCell id="ru4KaHA4FuWsfrp8raAA-11" value="删除用户信息" style="rounded=0;whiteSpace=wrap;html=1;" vertex="1" parent="1">
          <mxGeometry x="500" y="25" width="100" height="50" as="geometry" />
        </mxCell>
        <mxCell id="ru4KaHA4FuWsfrp8raAA-14" style="edgeStyle=orthogonalEdgeStyle;rounded=0;orthogonalLoop=1;jettySize=auto;html=1;exitX=0.5;exitY=0;exitDx=0;exitDy=0;entryX=0.5;entryY=1;entryDx=0;entryDy=0;" edge="1" parent="1" source="ru4KaHA4FuWsfrp8raAA-12" target="ru4KaHA4FuWsfrp8raAA-11">
          <mxGeometry relative="1" as="geometry" />
        </mxCell>
        <mxCell id="ru4KaHA4FuWsfrp8raAA-18" style="edgeStyle=orthogonalEdgeStyle;rounded=0;orthogonalLoop=1;jettySize=auto;html=1;exitX=1;exitY=0.5;exitDx=0;exitDy=0;" edge="1" parent="1" source="ru4KaHA4FuWsfrp8raAA-12">
          <mxGeometry relative="1" as="geometry">
            <mxPoint x="660" y="140" as="targetPoint" />
          </mxGeometry>
        </mxCell>
        <mxCell id="ru4KaHA4FuWsfrp8raAA-12" value="操作" style="rhombus;whiteSpace=wrap;html=1;" vertex="1" parent="1">
          <mxGeometry x="510" y="110" width="80" height="60" as="geometry" />
        </mxCell>
        <mxCell id="ru4KaHA4FuWsfrp8raAA-16" value="结束" style="rounded=1;whiteSpace=wrap;html=1;" vertex="1" parent="1">
          <mxGeometry x="680" y="30" width="70" height="40" as="geometry" />
        </mxCell>
        <mxCell id="ru4KaHA4FuWsfrp8raAA-19" style="edgeStyle=orthogonalEdgeStyle;rounded=0;orthogonalLoop=1;jettySize=auto;html=1;exitX=0.5;exitY=0;exitDx=0;exitDy=0;entryX=0.5;entryY=1;entryDx=0;entryDy=0;" edge="1" parent="1" source="ru4KaHA4FuWsfrp8raAA-17" target="ru4KaHA4FuWsfrp8raAA-16">
          <mxGeometry relative="1" as="geometry" />
        </mxCell>
        <mxCell id="ru4KaHA4FuWsfrp8raAA-17" value="保存用户信息" style="rounded=0;whiteSpace=wrap;html=1;" vertex="1" parent="1">
          <mxGeometry x="665" y="115" width="100" height="50" as="geometry" />
        </mxCell>
        <mxCell id="ru4KaHA4FuWsfrp8raAA-21" value="选择删除" style="text;html=1;strokeColor=none;fillColor=none;align=center;verticalAlign=middle;whiteSpace=wrap;rounded=0;" vertex="1" parent="1">
          <mxGeometry x="550" y="80" width="60" height="30" as="geometry" />
        </mxCell>
        <mxCell id="ru4KaHA4FuWsfrp8raAA-22" value="选择编辑、添加" style="text;html=1;strokeColor=none;fillColor=none;align=center;verticalAlign=middle;whiteSpace=wrap;rounded=0;" vertex="1" parent="1">
          <mxGeometry x="590" y="150" width="70" height="30" as="geometry" />
        </mxCell>
      </root>
    </mxGraphModel>
  </diagram>
  <diagram id="bpHvUk7FuKLyZeTIrVR9" name="第 3 页">
    <mxGraphModel dx="1290" dy="541" grid="1" gridSize="10" guides="1" tooltips="1" connect="1" arrows="1" fold="1" page="1" pageScale="1" pageWidth="827" pageHeight="1169" math="0" shadow="0">
      <root>
        <mxCell id="0" />
        <mxCell id="1" parent="0" />
        <mxCell id="yyfNDN8Fol_1meAp3S9x-1" style="edgeStyle=orthogonalEdgeStyle;rounded=0;orthogonalLoop=1;jettySize=auto;html=1;exitX=1;exitY=0.5;exitDx=0;exitDy=0;entryX=0;entryY=0.5;entryDx=0;entryDy=0;" edge="1" parent="1" source="yyfNDN8Fol_1meAp3S9x-2" target="yyfNDN8Fol_1meAp3S9x-5">
          <mxGeometry relative="1" as="geometry" />
        </mxCell>
        <mxCell id="yyfNDN8Fol_1meAp3S9x-2" value="开始" style="rounded=1;whiteSpace=wrap;html=1;" vertex="1" parent="1">
          <mxGeometry x="80" y="120" width="70" height="40" as="geometry" />
        </mxCell>
        <mxCell id="yyfNDN8Fol_1meAp3S9x-3" style="edgeStyle=orthogonalEdgeStyle;rounded=0;orthogonalLoop=1;jettySize=auto;html=1;exitX=0.5;exitY=0;exitDx=0;exitDy=0;entryX=0.5;entryY=1;entryDx=0;entryDy=0;" edge="1" parent="1" source="yyfNDN8Fol_1meAp3S9x-5" target="yyfNDN8Fol_1meAp3S9x-7">
          <mxGeometry relative="1" as="geometry" />
        </mxCell>
        <mxCell id="yyfNDN8Fol_1meAp3S9x-4" style="edgeStyle=orthogonalEdgeStyle;rounded=0;orthogonalLoop=1;jettySize=auto;html=1;exitX=1;exitY=0.5;exitDx=0;exitDy=0;entryX=0;entryY=0.5;entryDx=0;entryDy=0;" edge="1" parent="1" source="yyfNDN8Fol_1meAp3S9x-5" target="yyfNDN8Fol_1meAp3S9x-11">
          <mxGeometry relative="1" as="geometry" />
        </mxCell>
        <mxCell id="yyfNDN8Fol_1meAp3S9x-5" value="点击角色管理" style="rounded=0;whiteSpace=wrap;html=1;" vertex="1" parent="1">
          <mxGeometry x="200" y="115" width="100" height="50" as="geometry" />
        </mxCell>
        <mxCell id="yyfNDN8Fol_1meAp3S9x-6" style="edgeStyle=orthogonalEdgeStyle;rounded=0;orthogonalLoop=1;jettySize=auto;html=1;exitX=1;exitY=0.5;exitDx=0;exitDy=0;entryX=0;entryY=0.5;entryDx=0;entryDy=0;" edge="1" parent="1" source="yyfNDN8Fol_1meAp3S9x-7" target="yyfNDN8Fol_1meAp3S9x-9">
          <mxGeometry relative="1" as="geometry" />
        </mxCell>
        <mxCell id="yyfNDN8Fol_1meAp3S9x-7" value="条件查询" style="rhombus;whiteSpace=wrap;html=1;" vertex="1" parent="1">
          <mxGeometry x="210" y="20" width="80" height="60" as="geometry" />
        </mxCell>
        <mxCell id="yyfNDN8Fol_1meAp3S9x-8" style="edgeStyle=orthogonalEdgeStyle;rounded=0;orthogonalLoop=1;jettySize=auto;html=1;exitX=0.5;exitY=1;exitDx=0;exitDy=0;" edge="1" parent="1" source="yyfNDN8Fol_1meAp3S9x-9" target="yyfNDN8Fol_1meAp3S9x-11">
          <mxGeometry relative="1" as="geometry" />
        </mxCell>
        <mxCell id="yyfNDN8Fol_1meAp3S9x-9" value="筛选成功" style="rounded=0;whiteSpace=wrap;html=1;" vertex="1" parent="1">
          <mxGeometry x="350" y="25" width="100" height="50" as="geometry" />
        </mxCell>
        <mxCell id="yyfNDN8Fol_1meAp3S9x-10" style="edgeStyle=orthogonalEdgeStyle;rounded=0;orthogonalLoop=1;jettySize=auto;html=1;exitX=1;exitY=0.5;exitDx=0;exitDy=0;entryX=0;entryY=0.5;entryDx=0;entryDy=0;" edge="1" parent="1" source="yyfNDN8Fol_1meAp3S9x-11" target="yyfNDN8Fol_1meAp3S9x-16">
          <mxGeometry relative="1" as="geometry" />
        </mxCell>
        <mxCell id="yyfNDN8Fol_1meAp3S9x-11" value="显示角色信息" style="rounded=0;whiteSpace=wrap;html=1;" vertex="1" parent="1">
          <mxGeometry x="350" y="115" width="100" height="50" as="geometry" />
        </mxCell>
        <mxCell id="yyfNDN8Fol_1meAp3S9x-12" style="edgeStyle=orthogonalEdgeStyle;rounded=0;orthogonalLoop=1;jettySize=auto;html=1;exitX=1;exitY=0.5;exitDx=0;exitDy=0;entryX=0;entryY=0.5;entryDx=0;entryDy=0;" edge="1" parent="1" source="yyfNDN8Fol_1meAp3S9x-13" target="yyfNDN8Fol_1meAp3S9x-17">
          <mxGeometry relative="1" as="geometry" />
        </mxCell>
        <mxCell id="yyfNDN8Fol_1meAp3S9x-13" value="删除用角色信息" style="rounded=0;whiteSpace=wrap;html=1;" vertex="1" parent="1">
          <mxGeometry x="500" y="25" width="100" height="50" as="geometry" />
        </mxCell>
        <mxCell id="yyfNDN8Fol_1meAp3S9x-14" style="edgeStyle=orthogonalEdgeStyle;rounded=0;orthogonalLoop=1;jettySize=auto;html=1;exitX=0.5;exitY=0;exitDx=0;exitDy=0;entryX=0.5;entryY=1;entryDx=0;entryDy=0;" edge="1" parent="1" source="yyfNDN8Fol_1meAp3S9x-16" target="yyfNDN8Fol_1meAp3S9x-13">
          <mxGeometry relative="1" as="geometry" />
        </mxCell>
        <mxCell id="yyfNDN8Fol_1meAp3S9x-15" style="edgeStyle=orthogonalEdgeStyle;rounded=0;orthogonalLoop=1;jettySize=auto;html=1;exitX=1;exitY=0.5;exitDx=0;exitDy=0;" edge="1" parent="1" source="yyfNDN8Fol_1meAp3S9x-16">
          <mxGeometry relative="1" as="geometry">
            <mxPoint x="660" y="140" as="targetPoint" />
          </mxGeometry>
        </mxCell>
        <mxCell id="yyfNDN8Fol_1meAp3S9x-16" value="操作" style="rhombus;whiteSpace=wrap;html=1;" vertex="1" parent="1">
          <mxGeometry x="510" y="110" width="80" height="60" as="geometry" />
        </mxCell>
        <mxCell id="yyfNDN8Fol_1meAp3S9x-17" value="结束" style="rounded=1;whiteSpace=wrap;html=1;" vertex="1" parent="1">
          <mxGeometry x="680" y="30" width="70" height="40" as="geometry" />
        </mxCell>
        <mxCell id="yyfNDN8Fol_1meAp3S9x-18" style="edgeStyle=orthogonalEdgeStyle;rounded=0;orthogonalLoop=1;jettySize=auto;html=1;exitX=0.5;exitY=0;exitDx=0;exitDy=0;entryX=0.5;entryY=1;entryDx=0;entryDy=0;" edge="1" parent="1" source="yyfNDN8Fol_1meAp3S9x-19" target="yyfNDN8Fol_1meAp3S9x-17">
          <mxGeometry relative="1" as="geometry" />
        </mxCell>
        <mxCell id="yyfNDN8Fol_1meAp3S9x-19" value="保存角色信息" style="rounded=0;whiteSpace=wrap;html=1;" vertex="1" parent="1">
          <mxGeometry x="665" y="115" width="100" height="50" as="geometry" />
        </mxCell>
        <mxCell id="yyfNDN8Fol_1meAp3S9x-20" value="选择删除" style="text;html=1;strokeColor=none;fillColor=none;align=center;verticalAlign=middle;whiteSpace=wrap;rounded=0;" vertex="1" parent="1">
          <mxGeometry x="550" y="80" width="60" height="30" as="geometry" />
        </mxCell>
        <mxCell id="yyfNDN8Fol_1meAp3S9x-21" value="选择编辑、添加" style="text;html=1;strokeColor=none;fillColor=none;align=center;verticalAlign=middle;whiteSpace=wrap;rounded=0;" vertex="1" parent="1">
          <mxGeometry x="590" y="150" width="70" height="30" as="geometry" />
        </mxCell>
      </root>
    </mxGraphModel>
  </diagram>
  <diagram id="1maDh-qWDL3U2sO1PA00" name="第 4 页">
    <mxGraphModel dx="1290" dy="541" grid="1" gridSize="10" guides="1" tooltips="1" connect="1" arrows="1" fold="1" page="1" pageScale="1" pageWidth="827" pageHeight="1169" math="0" shadow="0">
      <root>
        <mxCell id="0" />
        <mxCell id="1" parent="0" />
        <mxCell id="J458F59aD67yXVu8Ju7i-1" style="edgeStyle=orthogonalEdgeStyle;rounded=0;orthogonalLoop=1;jettySize=auto;html=1;exitX=1;exitY=0.5;exitDx=0;exitDy=0;entryX=0;entryY=0.5;entryDx=0;entryDy=0;" edge="1" parent="1" source="J458F59aD67yXVu8Ju7i-2" target="J458F59aD67yXVu8Ju7i-5">
          <mxGeometry relative="1" as="geometry" />
        </mxCell>
        <mxCell id="J458F59aD67yXVu8Ju7i-2" value="开始" style="rounded=1;whiteSpace=wrap;html=1;" vertex="1" parent="1">
          <mxGeometry x="80" y="120" width="70" height="40" as="geometry" />
        </mxCell>
        <mxCell id="J458F59aD67yXVu8Ju7i-3" style="edgeStyle=orthogonalEdgeStyle;rounded=0;orthogonalLoop=1;jettySize=auto;html=1;exitX=0.5;exitY=0;exitDx=0;exitDy=0;entryX=0.5;entryY=1;entryDx=0;entryDy=0;" edge="1" parent="1" source="J458F59aD67yXVu8Ju7i-5" target="J458F59aD67yXVu8Ju7i-7">
          <mxGeometry relative="1" as="geometry" />
        </mxCell>
        <mxCell id="J458F59aD67yXVu8Ju7i-4" style="edgeStyle=orthogonalEdgeStyle;rounded=0;orthogonalLoop=1;jettySize=auto;html=1;exitX=1;exitY=0.5;exitDx=0;exitDy=0;entryX=0;entryY=0.5;entryDx=0;entryDy=0;" edge="1" parent="1" source="J458F59aD67yXVu8Ju7i-5" target="J458F59aD67yXVu8Ju7i-11">
          <mxGeometry relative="1" as="geometry" />
        </mxCell>
        <mxCell id="J458F59aD67yXVu8Ju7i-5" value="点击公告管理" style="rounded=0;whiteSpace=wrap;html=1;" vertex="1" parent="1">
          <mxGeometry x="200" y="115" width="100" height="50" as="geometry" />
        </mxCell>
        <mxCell id="J458F59aD67yXVu8Ju7i-6" style="edgeStyle=orthogonalEdgeStyle;rounded=0;orthogonalLoop=1;jettySize=auto;html=1;exitX=1;exitY=0.5;exitDx=0;exitDy=0;entryX=0;entryY=0.5;entryDx=0;entryDy=0;" edge="1" parent="1" source="J458F59aD67yXVu8Ju7i-7" target="J458F59aD67yXVu8Ju7i-9">
          <mxGeometry relative="1" as="geometry" />
        </mxCell>
        <mxCell id="J458F59aD67yXVu8Ju7i-7" value="条件查询" style="rhombus;whiteSpace=wrap;html=1;" vertex="1" parent="1">
          <mxGeometry x="210" y="20" width="80" height="60" as="geometry" />
        </mxCell>
        <mxCell id="J458F59aD67yXVu8Ju7i-8" style="edgeStyle=orthogonalEdgeStyle;rounded=0;orthogonalLoop=1;jettySize=auto;html=1;exitX=0.5;exitY=1;exitDx=0;exitDy=0;" edge="1" parent="1" source="J458F59aD67yXVu8Ju7i-9" target="J458F59aD67yXVu8Ju7i-11">
          <mxGeometry relative="1" as="geometry" />
        </mxCell>
        <mxCell id="J458F59aD67yXVu8Ju7i-9" value="筛选成功" style="rounded=0;whiteSpace=wrap;html=1;" vertex="1" parent="1">
          <mxGeometry x="350" y="25" width="100" height="50" as="geometry" />
        </mxCell>
        <mxCell id="J458F59aD67yXVu8Ju7i-10" style="edgeStyle=orthogonalEdgeStyle;rounded=0;orthogonalLoop=1;jettySize=auto;html=1;exitX=1;exitY=0.5;exitDx=0;exitDy=0;entryX=0;entryY=0.5;entryDx=0;entryDy=0;" edge="1" parent="1" source="J458F59aD67yXVu8Ju7i-11" target="J458F59aD67yXVu8Ju7i-16">
          <mxGeometry relative="1" as="geometry" />
        </mxCell>
        <mxCell id="J458F59aD67yXVu8Ju7i-11" value="显示公告信息" style="rounded=0;whiteSpace=wrap;html=1;" vertex="1" parent="1">
          <mxGeometry x="350" y="115" width="100" height="50" as="geometry" />
        </mxCell>
        <mxCell id="J458F59aD67yXVu8Ju7i-12" style="edgeStyle=orthogonalEdgeStyle;rounded=0;orthogonalLoop=1;jettySize=auto;html=1;exitX=1;exitY=0.5;exitDx=0;exitDy=0;entryX=0;entryY=0.5;entryDx=0;entryDy=0;" edge="1" parent="1" source="J458F59aD67yXVu8Ju7i-13" target="J458F59aD67yXVu8Ju7i-17">
          <mxGeometry relative="1" as="geometry" />
        </mxCell>
        <mxCell id="J458F59aD67yXVu8Ju7i-13" value="删除用公告信息" style="rounded=0;whiteSpace=wrap;html=1;" vertex="1" parent="1">
          <mxGeometry x="500" y="25" width="100" height="50" as="geometry" />
        </mxCell>
        <mxCell id="J458F59aD67yXVu8Ju7i-14" style="edgeStyle=orthogonalEdgeStyle;rounded=0;orthogonalLoop=1;jettySize=auto;html=1;exitX=0.5;exitY=0;exitDx=0;exitDy=0;entryX=0.5;entryY=1;entryDx=0;entryDy=0;" edge="1" parent="1" source="J458F59aD67yXVu8Ju7i-16" target="J458F59aD67yXVu8Ju7i-13">
          <mxGeometry relative="1" as="geometry" />
        </mxCell>
        <mxCell id="J458F59aD67yXVu8Ju7i-15" style="edgeStyle=orthogonalEdgeStyle;rounded=0;orthogonalLoop=1;jettySize=auto;html=1;exitX=1;exitY=0.5;exitDx=0;exitDy=0;" edge="1" parent="1" source="J458F59aD67yXVu8Ju7i-16">
          <mxGeometry relative="1" as="geometry">
            <mxPoint x="660" y="140" as="targetPoint" />
          </mxGeometry>
        </mxCell>
        <mxCell id="J458F59aD67yXVu8Ju7i-16" value="操作" style="rhombus;whiteSpace=wrap;html=1;" vertex="1" parent="1">
          <mxGeometry x="510" y="110" width="80" height="60" as="geometry" />
        </mxCell>
        <mxCell id="J458F59aD67yXVu8Ju7i-17" value="结束" style="rounded=1;whiteSpace=wrap;html=1;" vertex="1" parent="1">
          <mxGeometry x="680" y="30" width="70" height="40" as="geometry" />
        </mxCell>
        <mxCell id="J458F59aD67yXVu8Ju7i-18" style="edgeStyle=orthogonalEdgeStyle;rounded=0;orthogonalLoop=1;jettySize=auto;html=1;exitX=0.5;exitY=0;exitDx=0;exitDy=0;entryX=0.5;entryY=1;entryDx=0;entryDy=0;" edge="1" parent="1" source="J458F59aD67yXVu8Ju7i-19" target="J458F59aD67yXVu8Ju7i-17">
          <mxGeometry relative="1" as="geometry" />
        </mxCell>
        <mxCell id="J458F59aD67yXVu8Ju7i-19" value="保存公告信息" style="rounded=0;whiteSpace=wrap;html=1;" vertex="1" parent="1">
          <mxGeometry x="665" y="115" width="100" height="50" as="geometry" />
        </mxCell>
        <mxCell id="J458F59aD67yXVu8Ju7i-20" value="选择删除" style="text;html=1;strokeColor=none;fillColor=none;align=center;verticalAlign=middle;whiteSpace=wrap;rounded=0;" vertex="1" parent="1">
          <mxGeometry x="550" y="80" width="60" height="30" as="geometry" />
        </mxCell>
        <mxCell id="J458F59aD67yXVu8Ju7i-21" value="选择编辑、添加" style="text;html=1;strokeColor=none;fillColor=none;align=center;verticalAlign=middle;whiteSpace=wrap;rounded=0;" vertex="1" parent="1">
          <mxGeometry x="590" y="150" width="70" height="30" as="geometry" />
        </mxCell>
      </root>
    </mxGraphModel>
  </diagram>
  <diagram id="JjVmPBqEOqG7leBm5_QW" name="第 5 页">
    <mxGraphModel dx="1290" dy="541" grid="1" gridSize="10" guides="1" tooltips="1" connect="1" arrows="1" fold="1" page="1" pageScale="1" pageWidth="827" pageHeight="1169" math="0" shadow="0">
      <root>
        <mxCell id="0" />
        <mxCell id="1" parent="0" />
        <mxCell id="NhlA_ETyS9cUEw0xcvrp-1" style="edgeStyle=orthogonalEdgeStyle;rounded=0;orthogonalLoop=1;jettySize=auto;html=1;exitX=1;exitY=0.5;exitDx=0;exitDy=0;entryX=0;entryY=0.5;entryDx=0;entryDy=0;" edge="1" parent="1" source="NhlA_ETyS9cUEw0xcvrp-2" target="NhlA_ETyS9cUEw0xcvrp-5">
          <mxGeometry relative="1" as="geometry" />
        </mxCell>
        <mxCell id="NhlA_ETyS9cUEw0xcvrp-2" value="开始" style="rounded=1;whiteSpace=wrap;html=1;" vertex="1" parent="1">
          <mxGeometry x="80" y="120" width="70" height="40" as="geometry" />
        </mxCell>
        <mxCell id="NhlA_ETyS9cUEw0xcvrp-3" style="edgeStyle=orthogonalEdgeStyle;rounded=0;orthogonalLoop=1;jettySize=auto;html=1;exitX=0.5;exitY=0;exitDx=0;exitDy=0;entryX=0.5;entryY=1;entryDx=0;entryDy=0;" edge="1" parent="1" source="NhlA_ETyS9cUEw0xcvrp-5" target="NhlA_ETyS9cUEw0xcvrp-7">
          <mxGeometry relative="1" as="geometry" />
        </mxCell>
        <mxCell id="NhlA_ETyS9cUEw0xcvrp-4" style="edgeStyle=orthogonalEdgeStyle;rounded=0;orthogonalLoop=1;jettySize=auto;html=1;exitX=1;exitY=0.5;exitDx=0;exitDy=0;entryX=0;entryY=0.5;entryDx=0;entryDy=0;" edge="1" parent="1" source="NhlA_ETyS9cUEw0xcvrp-5" target="NhlA_ETyS9cUEw0xcvrp-11">
          <mxGeometry relative="1" as="geometry" />
        </mxCell>
        <mxCell id="NhlA_ETyS9cUEw0xcvrp-5" value="点击文章类型管理" style="rounded=0;whiteSpace=wrap;html=1;" vertex="1" parent="1">
          <mxGeometry x="200" y="115" width="100" height="50" as="geometry" />
        </mxCell>
        <mxCell id="NhlA_ETyS9cUEw0xcvrp-6" style="edgeStyle=orthogonalEdgeStyle;rounded=0;orthogonalLoop=1;jettySize=auto;html=1;exitX=1;exitY=0.5;exitDx=0;exitDy=0;entryX=0;entryY=0.5;entryDx=0;entryDy=0;" edge="1" parent="1" source="NhlA_ETyS9cUEw0xcvrp-7" target="NhlA_ETyS9cUEw0xcvrp-9">
          <mxGeometry relative="1" as="geometry" />
        </mxCell>
        <mxCell id="NhlA_ETyS9cUEw0xcvrp-7" value="条件查询" style="rhombus;whiteSpace=wrap;html=1;" vertex="1" parent="1">
          <mxGeometry x="210" y="20" width="80" height="60" as="geometry" />
        </mxCell>
        <mxCell id="NhlA_ETyS9cUEw0xcvrp-8" style="edgeStyle=orthogonalEdgeStyle;rounded=0;orthogonalLoop=1;jettySize=auto;html=1;exitX=0.5;exitY=1;exitDx=0;exitDy=0;" edge="1" parent="1" source="NhlA_ETyS9cUEw0xcvrp-9" target="NhlA_ETyS9cUEw0xcvrp-11">
          <mxGeometry relative="1" as="geometry" />
        </mxCell>
        <mxCell id="NhlA_ETyS9cUEw0xcvrp-9" value="筛选成功" style="rounded=0;whiteSpace=wrap;html=1;" vertex="1" parent="1">
          <mxGeometry x="350" y="25" width="100" height="50" as="geometry" />
        </mxCell>
        <mxCell id="NhlA_ETyS9cUEw0xcvrp-10" style="edgeStyle=orthogonalEdgeStyle;rounded=0;orthogonalLoop=1;jettySize=auto;html=1;exitX=1;exitY=0.5;exitDx=0;exitDy=0;entryX=0;entryY=0.5;entryDx=0;entryDy=0;" edge="1" parent="1" source="NhlA_ETyS9cUEw0xcvrp-11" target="NhlA_ETyS9cUEw0xcvrp-16">
          <mxGeometry relative="1" as="geometry" />
        </mxCell>
        <mxCell id="NhlA_ETyS9cUEw0xcvrp-11" value="显示文章类型信息" style="rounded=0;whiteSpace=wrap;html=1;" vertex="1" parent="1">
          <mxGeometry x="350" y="115" width="100" height="50" as="geometry" />
        </mxCell>
        <mxCell id="NhlA_ETyS9cUEw0xcvrp-12" style="edgeStyle=orthogonalEdgeStyle;rounded=0;orthogonalLoop=1;jettySize=auto;html=1;exitX=1;exitY=0.5;exitDx=0;exitDy=0;entryX=0;entryY=0.5;entryDx=0;entryDy=0;" edge="1" parent="1" source="NhlA_ETyS9cUEw0xcvrp-13" target="NhlA_ETyS9cUEw0xcvrp-17">
          <mxGeometry relative="1" as="geometry" />
        </mxCell>
        <mxCell id="NhlA_ETyS9cUEw0xcvrp-13" value="删除文章类型信息" style="rounded=0;whiteSpace=wrap;html=1;" vertex="1" parent="1">
          <mxGeometry x="500" y="25" width="100" height="50" as="geometry" />
        </mxCell>
        <mxCell id="NhlA_ETyS9cUEw0xcvrp-14" style="edgeStyle=orthogonalEdgeStyle;rounded=0;orthogonalLoop=1;jettySize=auto;html=1;exitX=0.5;exitY=0;exitDx=0;exitDy=0;entryX=0.5;entryY=1;entryDx=0;entryDy=0;" edge="1" parent="1" source="NhlA_ETyS9cUEw0xcvrp-16" target="NhlA_ETyS9cUEw0xcvrp-13">
          <mxGeometry relative="1" as="geometry" />
        </mxCell>
        <mxCell id="NhlA_ETyS9cUEw0xcvrp-15" style="edgeStyle=orthogonalEdgeStyle;rounded=0;orthogonalLoop=1;jettySize=auto;html=1;exitX=1;exitY=0.5;exitDx=0;exitDy=0;" edge="1" parent="1" source="NhlA_ETyS9cUEw0xcvrp-16">
          <mxGeometry relative="1" as="geometry">
            <mxPoint x="660" y="140" as="targetPoint" />
          </mxGeometry>
        </mxCell>
        <mxCell id="NhlA_ETyS9cUEw0xcvrp-16" value="操作" style="rhombus;whiteSpace=wrap;html=1;" vertex="1" parent="1">
          <mxGeometry x="510" y="110" width="80" height="60" as="geometry" />
        </mxCell>
        <mxCell id="NhlA_ETyS9cUEw0xcvrp-17" value="结束" style="rounded=1;whiteSpace=wrap;html=1;" vertex="1" parent="1">
          <mxGeometry x="680" y="30" width="70" height="40" as="geometry" />
        </mxCell>
        <mxCell id="NhlA_ETyS9cUEw0xcvrp-18" style="edgeStyle=orthogonalEdgeStyle;rounded=0;orthogonalLoop=1;jettySize=auto;html=1;exitX=0.5;exitY=0;exitDx=0;exitDy=0;entryX=0.5;entryY=1;entryDx=0;entryDy=0;" edge="1" parent="1" source="NhlA_ETyS9cUEw0xcvrp-19" target="NhlA_ETyS9cUEw0xcvrp-17">
          <mxGeometry relative="1" as="geometry" />
        </mxCell>
        <mxCell id="NhlA_ETyS9cUEw0xcvrp-19" value="保存文章类型信息" style="rounded=0;whiteSpace=wrap;html=1;" vertex="1" parent="1">
          <mxGeometry x="665" y="115" width="100" height="50" as="geometry" />
        </mxCell>
        <mxCell id="NhlA_ETyS9cUEw0xcvrp-20" value="选择删除" style="text;html=1;strokeColor=none;fillColor=none;align=center;verticalAlign=middle;whiteSpace=wrap;rounded=0;" vertex="1" parent="1">
          <mxGeometry x="550" y="80" width="60" height="30" as="geometry" />
        </mxCell>
        <mxCell id="NhlA_ETyS9cUEw0xcvrp-21" value="选择编辑、添加" style="text;html=1;strokeColor=none;fillColor=none;align=center;verticalAlign=middle;whiteSpace=wrap;rounded=0;" vertex="1" parent="1">
          <mxGeometry x="590" y="150" width="70" height="30" as="geometry" />
        </mxCell>
      </root>
    </mxGraphModel>
  </diagram>
  <diagram id="B3Letm7u3BYxErRPF9-F" name="第 6 页">
    <mxGraphModel dx="1518" dy="636" grid="1" gridSize="10" guides="1" tooltips="1" connect="1" arrows="1" fold="1" page="1" pageScale="1" pageWidth="827" pageHeight="1169" math="0" shadow="0">
      <root>
        <mxCell id="0" />
        <mxCell id="1" parent="0" />
        <mxCell id="qNtjCNKpJVIQ7QpvThDU-1" style="edgeStyle=orthogonalEdgeStyle;rounded=0;orthogonalLoop=1;jettySize=auto;html=1;exitX=1;exitY=0.5;exitDx=0;exitDy=0;entryX=0;entryY=0.5;entryDx=0;entryDy=0;" edge="1" parent="1" source="qNtjCNKpJVIQ7QpvThDU-2" target="qNtjCNKpJVIQ7QpvThDU-5">
          <mxGeometry relative="1" as="geometry" />
        </mxCell>
        <mxCell id="qNtjCNKpJVIQ7QpvThDU-2" value="开始" style="rounded=1;whiteSpace=wrap;html=1;" vertex="1" parent="1">
          <mxGeometry x="80" y="120" width="70" height="40" as="geometry" />
        </mxCell>
        <mxCell id="qNtjCNKpJVIQ7QpvThDU-3" style="edgeStyle=orthogonalEdgeStyle;rounded=0;orthogonalLoop=1;jettySize=auto;html=1;exitX=0.5;exitY=0;exitDx=0;exitDy=0;entryX=0.5;entryY=1;entryDx=0;entryDy=0;" edge="1" parent="1" source="qNtjCNKpJVIQ7QpvThDU-5" target="qNtjCNKpJVIQ7QpvThDU-7">
          <mxGeometry relative="1" as="geometry" />
        </mxCell>
        <mxCell id="qNtjCNKpJVIQ7QpvThDU-4" style="edgeStyle=orthogonalEdgeStyle;rounded=0;orthogonalLoop=1;jettySize=auto;html=1;exitX=1;exitY=0.5;exitDx=0;exitDy=0;entryX=0;entryY=0.5;entryDx=0;entryDy=0;" edge="1" parent="1" source="qNtjCNKpJVIQ7QpvThDU-5" target="qNtjCNKpJVIQ7QpvThDU-11">
          <mxGeometry relative="1" as="geometry" />
        </mxCell>
        <mxCell id="qNtjCNKpJVIQ7QpvThDU-5" value="点击管理" style="rounded=0;whiteSpace=wrap;html=1;" vertex="1" parent="1">
          <mxGeometry x="200" y="115" width="100" height="50" as="geometry" />
        </mxCell>
        <mxCell id="qNtjCNKpJVIQ7QpvThDU-6" style="edgeStyle=orthogonalEdgeStyle;rounded=0;orthogonalLoop=1;jettySize=auto;html=1;exitX=1;exitY=0.5;exitDx=0;exitDy=0;entryX=0;entryY=0.5;entryDx=0;entryDy=0;" edge="1" parent="1" source="qNtjCNKpJVIQ7QpvThDU-7" target="qNtjCNKpJVIQ7QpvThDU-9">
          <mxGeometry relative="1" as="geometry" />
        </mxCell>
        <mxCell id="qNtjCNKpJVIQ7QpvThDU-7" value="条件查询" style="rhombus;whiteSpace=wrap;html=1;" vertex="1" parent="1">
          <mxGeometry x="210" y="20" width="80" height="60" as="geometry" />
        </mxCell>
        <mxCell id="qNtjCNKpJVIQ7QpvThDU-8" style="edgeStyle=orthogonalEdgeStyle;rounded=0;orthogonalLoop=1;jettySize=auto;html=1;exitX=0.5;exitY=1;exitDx=0;exitDy=0;" edge="1" parent="1" source="qNtjCNKpJVIQ7QpvThDU-9" target="qNtjCNKpJVIQ7QpvThDU-11">
          <mxGeometry relative="1" as="geometry" />
        </mxCell>
        <mxCell id="qNtjCNKpJVIQ7QpvThDU-9" value="筛选成功" style="rounded=0;whiteSpace=wrap;html=1;" vertex="1" parent="1">
          <mxGeometry x="350" y="25" width="100" height="50" as="geometry" />
        </mxCell>
        <mxCell id="qNtjCNKpJVIQ7QpvThDU-10" style="edgeStyle=orthogonalEdgeStyle;rounded=0;orthogonalLoop=1;jettySize=auto;html=1;exitX=1;exitY=0.5;exitDx=0;exitDy=0;entryX=0;entryY=0.5;entryDx=0;entryDy=0;" edge="1" parent="1" source="qNtjCNKpJVIQ7QpvThDU-11" target="qNtjCNKpJVIQ7QpvThDU-16">
          <mxGeometry relative="1" as="geometry" />
        </mxCell>
        <mxCell id="qNtjCNKpJVIQ7QpvThDU-11" value="显示公告信息" style="rounded=0;whiteSpace=wrap;html=1;" vertex="1" parent="1">
          <mxGeometry x="350" y="115" width="100" height="50" as="geometry" />
        </mxCell>
        <mxCell id="qNtjCNKpJVIQ7QpvThDU-12" style="edgeStyle=orthogonalEdgeStyle;rounded=0;orthogonalLoop=1;jettySize=auto;html=1;exitX=1;exitY=0.5;exitDx=0;exitDy=0;entryX=0;entryY=0.5;entryDx=0;entryDy=0;" edge="1" parent="1" source="qNtjCNKpJVIQ7QpvThDU-13" target="qNtjCNKpJVIQ7QpvThDU-17">
          <mxGeometry relative="1" as="geometry" />
        </mxCell>
        <mxCell id="qNtjCNKpJVIQ7QpvThDU-13" value="删除用公告信息" style="rounded=0;whiteSpace=wrap;html=1;" vertex="1" parent="1">
          <mxGeometry x="500" y="25" width="100" height="50" as="geometry" />
        </mxCell>
        <mxCell id="qNtjCNKpJVIQ7QpvThDU-14" style="edgeStyle=orthogonalEdgeStyle;rounded=0;orthogonalLoop=1;jettySize=auto;html=1;exitX=0.5;exitY=0;exitDx=0;exitDy=0;entryX=0.5;entryY=1;entryDx=0;entryDy=0;" edge="1" parent="1" source="qNtjCNKpJVIQ7QpvThDU-16" target="qNtjCNKpJVIQ7QpvThDU-13">
          <mxGeometry relative="1" as="geometry" />
        </mxCell>
        <mxCell id="qNtjCNKpJVIQ7QpvThDU-15" style="edgeStyle=orthogonalEdgeStyle;rounded=0;orthogonalLoop=1;jettySize=auto;html=1;exitX=1;exitY=0.5;exitDx=0;exitDy=0;" edge="1" parent="1" source="qNtjCNKpJVIQ7QpvThDU-16">
          <mxGeometry relative="1" as="geometry">
            <mxPoint x="660" y="140" as="targetPoint" />
          </mxGeometry>
        </mxCell>
        <mxCell id="qNtjCNKpJVIQ7QpvThDU-16" value="操作" style="rhombus;whiteSpace=wrap;html=1;" vertex="1" parent="1">
          <mxGeometry x="510" y="110" width="80" height="60" as="geometry" />
        </mxCell>
        <mxCell id="qNtjCNKpJVIQ7QpvThDU-17" value="结束" style="rounded=1;whiteSpace=wrap;html=1;" vertex="1" parent="1">
          <mxGeometry x="680" y="30" width="70" height="40" as="geometry" />
        </mxCell>
        <mxCell id="qNtjCNKpJVIQ7QpvThDU-18" style="edgeStyle=orthogonalEdgeStyle;rounded=0;orthogonalLoop=1;jettySize=auto;html=1;exitX=0.5;exitY=0;exitDx=0;exitDy=0;entryX=0.5;entryY=1;entryDx=0;entryDy=0;" edge="1" parent="1" source="qNtjCNKpJVIQ7QpvThDU-19" target="qNtjCNKpJVIQ7QpvThDU-17">
          <mxGeometry relative="1" as="geometry" />
        </mxCell>
        <mxCell id="qNtjCNKpJVIQ7QpvThDU-19" value="保存公告信息" style="rounded=0;whiteSpace=wrap;html=1;" vertex="1" parent="1">
          <mxGeometry x="665" y="115" width="100" height="50" as="geometry" />
        </mxCell>
        <mxCell id="qNtjCNKpJVIQ7QpvThDU-20" value="选择删除" style="text;html=1;strokeColor=none;fillColor=none;align=center;verticalAlign=middle;whiteSpace=wrap;rounded=0;" vertex="1" parent="1">
          <mxGeometry x="550" y="80" width="60" height="30" as="geometry" />
        </mxCell>
        <mxCell id="qNtjCNKpJVIQ7QpvThDU-21" value="选择编辑、添加" style="text;html=1;strokeColor=none;fillColor=none;align=center;verticalAlign=middle;whiteSpace=wrap;rounded=0;" vertex="1" parent="1">
          <mxGeometry x="590" y="150" width="70" height="30" as="geometry" />
        </mxCell>
      </root>
    </mxGraphModel>
  </diagram>
  <diagram id="LdY6SJzTrNnzgxRUGWWE" name="第 7 页">
    <mxGraphModel dx="1290" dy="541" grid="1" gridSize="10" guides="1" tooltips="1" connect="1" arrows="1" fold="1" page="1" pageScale="1" pageWidth="827" pageHeight="1169" math="0" shadow="0">
      <root>
        <mxCell id="0" />
        <mxCell id="1" parent="0" />
        <mxCell id="4MyCq8lFlarrK3eJmls7-1" style="edgeStyle=orthogonalEdgeStyle;rounded=0;orthogonalLoop=1;jettySize=auto;html=1;exitX=1;exitY=0.5;exitDx=0;exitDy=0;entryX=0;entryY=0.5;entryDx=0;entryDy=0;" edge="1" parent="1" source="4MyCq8lFlarrK3eJmls7-2" target="4MyCq8lFlarrK3eJmls7-5">
          <mxGeometry relative="1" as="geometry" />
        </mxCell>
        <mxCell id="4MyCq8lFlarrK3eJmls7-2" value="开始" style="rounded=1;whiteSpace=wrap;html=1;" vertex="1" parent="1">
          <mxGeometry x="80" y="120" width="70" height="40" as="geometry" />
        </mxCell>
        <mxCell id="4MyCq8lFlarrK3eJmls7-3" style="edgeStyle=orthogonalEdgeStyle;rounded=0;orthogonalLoop=1;jettySize=auto;html=1;exitX=0.5;exitY=0;exitDx=0;exitDy=0;entryX=0.5;entryY=1;entryDx=0;entryDy=0;" edge="1" parent="1" source="4MyCq8lFlarrK3eJmls7-5" target="4MyCq8lFlarrK3eJmls7-7">
          <mxGeometry relative="1" as="geometry" />
        </mxCell>
        <mxCell id="4MyCq8lFlarrK3eJmls7-4" style="edgeStyle=orthogonalEdgeStyle;rounded=0;orthogonalLoop=1;jettySize=auto;html=1;exitX=1;exitY=0.5;exitDx=0;exitDy=0;entryX=0;entryY=0.5;entryDx=0;entryDy=0;" edge="1" parent="1" source="4MyCq8lFlarrK3eJmls7-5" target="4MyCq8lFlarrK3eJmls7-11">
          <mxGeometry relative="1" as="geometry" />
        </mxCell>
        <mxCell id="4MyCq8lFlarrK3eJmls7-5" value="点击过滤词管理" style="rounded=0;whiteSpace=wrap;html=1;" vertex="1" parent="1">
          <mxGeometry x="200" y="115" width="100" height="50" as="geometry" />
        </mxCell>
        <mxCell id="4MyCq8lFlarrK3eJmls7-6" style="edgeStyle=orthogonalEdgeStyle;rounded=0;orthogonalLoop=1;jettySize=auto;html=1;exitX=1;exitY=0.5;exitDx=0;exitDy=0;entryX=0;entryY=0.5;entryDx=0;entryDy=0;" edge="1" parent="1" source="4MyCq8lFlarrK3eJmls7-7" target="4MyCq8lFlarrK3eJmls7-9">
          <mxGeometry relative="1" as="geometry" />
        </mxCell>
        <mxCell id="4MyCq8lFlarrK3eJmls7-7" value="条件查询" style="rhombus;whiteSpace=wrap;html=1;" vertex="1" parent="1">
          <mxGeometry x="210" y="20" width="80" height="60" as="geometry" />
        </mxCell>
        <mxCell id="4MyCq8lFlarrK3eJmls7-8" style="edgeStyle=orthogonalEdgeStyle;rounded=0;orthogonalLoop=1;jettySize=auto;html=1;exitX=0.5;exitY=1;exitDx=0;exitDy=0;" edge="1" parent="1" source="4MyCq8lFlarrK3eJmls7-9" target="4MyCq8lFlarrK3eJmls7-11">
          <mxGeometry relative="1" as="geometry" />
        </mxCell>
        <mxCell id="4MyCq8lFlarrK3eJmls7-9" value="筛选成功" style="rounded=0;whiteSpace=wrap;html=1;" vertex="1" parent="1">
          <mxGeometry x="350" y="25" width="100" height="50" as="geometry" />
        </mxCell>
        <mxCell id="4MyCq8lFlarrK3eJmls7-10" style="edgeStyle=orthogonalEdgeStyle;rounded=0;orthogonalLoop=1;jettySize=auto;html=1;exitX=1;exitY=0.5;exitDx=0;exitDy=0;entryX=0;entryY=0.5;entryDx=0;entryDy=0;" edge="1" parent="1" source="4MyCq8lFlarrK3eJmls7-11" target="4MyCq8lFlarrK3eJmls7-16">
          <mxGeometry relative="1" as="geometry" />
        </mxCell>
        <mxCell id="4MyCq8lFlarrK3eJmls7-11" value="显示过滤词信息" style="rounded=0;whiteSpace=wrap;html=1;" vertex="1" parent="1">
          <mxGeometry x="350" y="115" width="100" height="50" as="geometry" />
        </mxCell>
        <mxCell id="4MyCq8lFlarrK3eJmls7-12" style="edgeStyle=orthogonalEdgeStyle;rounded=0;orthogonalLoop=1;jettySize=auto;html=1;exitX=1;exitY=0.5;exitDx=0;exitDy=0;entryX=0;entryY=0.5;entryDx=0;entryDy=0;" edge="1" parent="1" source="4MyCq8lFlarrK3eJmls7-13" target="4MyCq8lFlarrK3eJmls7-17">
          <mxGeometry relative="1" as="geometry" />
        </mxCell>
        <mxCell id="4MyCq8lFlarrK3eJmls7-13" value="删除过滤词信息" style="rounded=0;whiteSpace=wrap;html=1;" vertex="1" parent="1">
          <mxGeometry x="500" y="25" width="100" height="50" as="geometry" />
        </mxCell>
        <mxCell id="4MyCq8lFlarrK3eJmls7-14" style="edgeStyle=orthogonalEdgeStyle;rounded=0;orthogonalLoop=1;jettySize=auto;html=1;exitX=0.5;exitY=0;exitDx=0;exitDy=0;entryX=0.5;entryY=1;entryDx=0;entryDy=0;" edge="1" parent="1" source="4MyCq8lFlarrK3eJmls7-16" target="4MyCq8lFlarrK3eJmls7-13">
          <mxGeometry relative="1" as="geometry" />
        </mxCell>
        <mxCell id="4MyCq8lFlarrK3eJmls7-15" style="edgeStyle=orthogonalEdgeStyle;rounded=0;orthogonalLoop=1;jettySize=auto;html=1;exitX=1;exitY=0.5;exitDx=0;exitDy=0;" edge="1" parent="1" source="4MyCq8lFlarrK3eJmls7-16">
          <mxGeometry relative="1" as="geometry">
            <mxPoint x="660" y="140" as="targetPoint" />
          </mxGeometry>
        </mxCell>
        <mxCell id="4MyCq8lFlarrK3eJmls7-16" value="操作" style="rhombus;whiteSpace=wrap;html=1;" vertex="1" parent="1">
          <mxGeometry x="510" y="110" width="80" height="60" as="geometry" />
        </mxCell>
        <mxCell id="4MyCq8lFlarrK3eJmls7-17" value="结束" style="rounded=1;whiteSpace=wrap;html=1;" vertex="1" parent="1">
          <mxGeometry x="680" y="30" width="70" height="40" as="geometry" />
        </mxCell>
        <mxCell id="4MyCq8lFlarrK3eJmls7-18" style="edgeStyle=orthogonalEdgeStyle;rounded=0;orthogonalLoop=1;jettySize=auto;html=1;exitX=0.5;exitY=0;exitDx=0;exitDy=0;entryX=0.5;entryY=1;entryDx=0;entryDy=0;" edge="1" parent="1" source="4MyCq8lFlarrK3eJmls7-19" target="4MyCq8lFlarrK3eJmls7-17">
          <mxGeometry relative="1" as="geometry" />
        </mxCell>
        <mxCell id="4MyCq8lFlarrK3eJmls7-19" value="保存过滤词信息" style="rounded=0;whiteSpace=wrap;html=1;" vertex="1" parent="1">
          <mxGeometry x="665" y="115" width="100" height="50" as="geometry" />
        </mxCell>
        <mxCell id="4MyCq8lFlarrK3eJmls7-20" value="选择删除" style="text;html=1;strokeColor=none;fillColor=none;align=center;verticalAlign=middle;whiteSpace=wrap;rounded=0;" vertex="1" parent="1">
          <mxGeometry x="550" y="80" width="60" height="30" as="geometry" />
        </mxCell>
        <mxCell id="4MyCq8lFlarrK3eJmls7-21" value="选择编辑、添加" style="text;html=1;strokeColor=none;fillColor=none;align=center;verticalAlign=middle;whiteSpace=wrap;rounded=0;" vertex="1" parent="1">
          <mxGeometry x="590" y="150" width="70" height="30" as="geometry" />
        </mxCell>
      </root>
    </mxGraphModel>
  </diagram>
  <diagram id="ZjAeHQ5-29_qXOfXJJ7K" name="第 8 页">
    <mxGraphModel dx="1290" dy="541" grid="1" gridSize="10" guides="1" tooltips="1" connect="1" arrows="1" fold="1" page="1" pageScale="1" pageWidth="827" pageHeight="1169" math="0" shadow="0">
      <root>
        <mxCell id="0" />
        <mxCell id="1" parent="0" />
        <mxCell id="kLMGfYxLFdH-SDC8K9vo-1" style="edgeStyle=orthogonalEdgeStyle;rounded=0;orthogonalLoop=1;jettySize=auto;html=1;exitX=1;exitY=0.5;exitDx=0;exitDy=0;entryX=0;entryY=0.5;entryDx=0;entryDy=0;" edge="1" parent="1" source="kLMGfYxLFdH-SDC8K9vo-2" target="kLMGfYxLFdH-SDC8K9vo-5">
          <mxGeometry relative="1" as="geometry" />
        </mxCell>
        <mxCell id="kLMGfYxLFdH-SDC8K9vo-2" value="开始" style="rounded=1;whiteSpace=wrap;html=1;" vertex="1" parent="1">
          <mxGeometry x="80" y="120" width="70" height="40" as="geometry" />
        </mxCell>
        <mxCell id="kLMGfYxLFdH-SDC8K9vo-4" style="edgeStyle=orthogonalEdgeStyle;rounded=0;orthogonalLoop=1;jettySize=auto;html=1;exitX=1;exitY=0.5;exitDx=0;exitDy=0;entryX=0;entryY=0.5;entryDx=0;entryDy=0;" edge="1" parent="1" source="kLMGfYxLFdH-SDC8K9vo-5" target="kLMGfYxLFdH-SDC8K9vo-11">
          <mxGeometry relative="1" as="geometry" />
        </mxCell>
        <mxCell id="kLMGfYxLFdH-SDC8K9vo-5" value="点击商品管理" style="rounded=0;whiteSpace=wrap;html=1;" vertex="1" parent="1">
          <mxGeometry x="200" y="115" width="100" height="50" as="geometry" />
        </mxCell>
        <mxCell id="kLMGfYxLFdH-SDC8K9vo-10" style="edgeStyle=orthogonalEdgeStyle;rounded=0;orthogonalLoop=1;jettySize=auto;html=1;exitX=1;exitY=0.5;exitDx=0;exitDy=0;entryX=0;entryY=0.5;entryDx=0;entryDy=0;" edge="1" parent="1" source="kLMGfYxLFdH-SDC8K9vo-11" target="kLMGfYxLFdH-SDC8K9vo-16">
          <mxGeometry relative="1" as="geometry" />
        </mxCell>
        <mxCell id="kLMGfYxLFdH-SDC8K9vo-11" value="显示商品信息" style="rounded=0;whiteSpace=wrap;html=1;" vertex="1" parent="1">
          <mxGeometry x="350" y="115" width="100" height="50" as="geometry" />
        </mxCell>
        <mxCell id="kLMGfYxLFdH-SDC8K9vo-12" style="edgeStyle=orthogonalEdgeStyle;rounded=0;orthogonalLoop=1;jettySize=auto;html=1;exitX=1;exitY=0.5;exitDx=0;exitDy=0;entryX=0;entryY=0.5;entryDx=0;entryDy=0;" edge="1" parent="1" source="kLMGfYxLFdH-SDC8K9vo-13" target="kLMGfYxLFdH-SDC8K9vo-17">
          <mxGeometry relative="1" as="geometry" />
        </mxCell>
        <mxCell id="kLMGfYxLFdH-SDC8K9vo-13" value="删除商品信息" style="rounded=0;whiteSpace=wrap;html=1;" vertex="1" parent="1">
          <mxGeometry x="500" y="25" width="100" height="50" as="geometry" />
        </mxCell>
        <mxCell id="kLMGfYxLFdH-SDC8K9vo-14" style="edgeStyle=orthogonalEdgeStyle;rounded=0;orthogonalLoop=1;jettySize=auto;html=1;exitX=0.5;exitY=0;exitDx=0;exitDy=0;entryX=0.5;entryY=1;entryDx=0;entryDy=0;" edge="1" parent="1" source="kLMGfYxLFdH-SDC8K9vo-16" target="kLMGfYxLFdH-SDC8K9vo-13">
          <mxGeometry relative="1" as="geometry" />
        </mxCell>
        <mxCell id="kLMGfYxLFdH-SDC8K9vo-15" style="edgeStyle=orthogonalEdgeStyle;rounded=0;orthogonalLoop=1;jettySize=auto;html=1;exitX=1;exitY=0.5;exitDx=0;exitDy=0;" edge="1" parent="1" source="kLMGfYxLFdH-SDC8K9vo-16">
          <mxGeometry relative="1" as="geometry">
            <mxPoint x="660" y="140" as="targetPoint" />
          </mxGeometry>
        </mxCell>
        <mxCell id="kLMGfYxLFdH-SDC8K9vo-16" value="操作" style="rhombus;whiteSpace=wrap;html=1;" vertex="1" parent="1">
          <mxGeometry x="510" y="110" width="80" height="60" as="geometry" />
        </mxCell>
        <mxCell id="kLMGfYxLFdH-SDC8K9vo-17" value="结束" style="rounded=1;whiteSpace=wrap;html=1;" vertex="1" parent="1">
          <mxGeometry x="680" y="30" width="70" height="40" as="geometry" />
        </mxCell>
        <mxCell id="kLMGfYxLFdH-SDC8K9vo-18" style="edgeStyle=orthogonalEdgeStyle;rounded=0;orthogonalLoop=1;jettySize=auto;html=1;exitX=0.5;exitY=0;exitDx=0;exitDy=0;entryX=0.5;entryY=1;entryDx=0;entryDy=0;" edge="1" parent="1" source="kLMGfYxLFdH-SDC8K9vo-19" target="kLMGfYxLFdH-SDC8K9vo-17">
          <mxGeometry relative="1" as="geometry" />
        </mxCell>
        <mxCell id="kLMGfYxLFdH-SDC8K9vo-19" value="保存商品信息" style="rounded=0;whiteSpace=wrap;html=1;" vertex="1" parent="1">
          <mxGeometry x="665" y="115" width="100" height="50" as="geometry" />
        </mxCell>
        <mxCell id="kLMGfYxLFdH-SDC8K9vo-20" value="选择删除" style="text;html=1;strokeColor=none;fillColor=none;align=center;verticalAlign=middle;whiteSpace=wrap;rounded=0;" vertex="1" parent="1">
          <mxGeometry x="550" y="80" width="60" height="30" as="geometry" />
        </mxCell>
        <mxCell id="kLMGfYxLFdH-SDC8K9vo-21" value="选择编辑、添加" style="text;html=1;strokeColor=none;fillColor=none;align=center;verticalAlign=middle;whiteSpace=wrap;rounded=0;" vertex="1" parent="1">
          <mxGeometry x="590" y="150" width="70" height="30" as="geometry" />
        </mxCell>
      </root>
    </mxGraphModel>
  </diagram>
  <diagram id="X9yUSv3LEBN7kXwzUHFi" name="第 9 页">
    <mxGraphModel dx="1290" dy="541" grid="1" gridSize="10" guides="1" tooltips="1" connect="1" arrows="1" fold="1" page="1" pageScale="1" pageWidth="827" pageHeight="1169" math="0" shadow="0">
      <root>
        <mxCell id="0" />
        <mxCell id="1" parent="0" />
        <mxCell id="4eXuHaeZLSQ8cxSmyOxy-1" style="edgeStyle=orthogonalEdgeStyle;rounded=0;orthogonalLoop=1;jettySize=auto;html=1;exitX=1;exitY=0.5;exitDx=0;exitDy=0;entryX=0;entryY=0.5;entryDx=0;entryDy=0;" edge="1" parent="1" source="4eXuHaeZLSQ8cxSmyOxy-2" target="4eXuHaeZLSQ8cxSmyOxy-4">
          <mxGeometry relative="1" as="geometry" />
        </mxCell>
        <mxCell id="4eXuHaeZLSQ8cxSmyOxy-2" value="开始" style="rounded=1;whiteSpace=wrap;html=1;" vertex="1" parent="1">
          <mxGeometry x="80" y="120" width="70" height="40" as="geometry" />
        </mxCell>
        <mxCell id="4eXuHaeZLSQ8cxSmyOxy-3" style="edgeStyle=orthogonalEdgeStyle;rounded=0;orthogonalLoop=1;jettySize=auto;html=1;exitX=1;exitY=0.5;exitDx=0;exitDy=0;entryX=0;entryY=0.5;entryDx=0;entryDy=0;" edge="1" parent="1" source="4eXuHaeZLSQ8cxSmyOxy-4" target="4eXuHaeZLSQ8cxSmyOxy-6">
          <mxGeometry relative="1" as="geometry" />
        </mxCell>
        <mxCell id="4eXuHaeZLSQ8cxSmyOxy-4" value="点击订单管理" style="rounded=0;whiteSpace=wrap;html=1;" vertex="1" parent="1">
          <mxGeometry x="200" y="115" width="100" height="50" as="geometry" />
        </mxCell>
        <mxCell id="4eXuHaeZLSQ8cxSmyOxy-5" style="edgeStyle=orthogonalEdgeStyle;rounded=0;orthogonalLoop=1;jettySize=auto;html=1;exitX=1;exitY=0.5;exitDx=0;exitDy=0;entryX=0;entryY=0.5;entryDx=0;entryDy=0;" edge="1" parent="1" source="4eXuHaeZLSQ8cxSmyOxy-6" target="4eXuHaeZLSQ8cxSmyOxy-11">
          <mxGeometry relative="1" as="geometry" />
        </mxCell>
        <mxCell id="4eXuHaeZLSQ8cxSmyOxy-6" value="显示订单信息" style="rounded=0;whiteSpace=wrap;html=1;" vertex="1" parent="1">
          <mxGeometry x="350" y="115" width="100" height="50" as="geometry" />
        </mxCell>
        <mxCell id="4eXuHaeZLSQ8cxSmyOxy-7" style="edgeStyle=orthogonalEdgeStyle;rounded=0;orthogonalLoop=1;jettySize=auto;html=1;exitX=1;exitY=0.5;exitDx=0;exitDy=0;entryX=0;entryY=0.5;entryDx=0;entryDy=0;" edge="1" parent="1" source="4eXuHaeZLSQ8cxSmyOxy-8" target="4eXuHaeZLSQ8cxSmyOxy-12">
          <mxGeometry relative="1" as="geometry" />
        </mxCell>
        <mxCell id="4eXuHaeZLSQ8cxSmyOxy-8" value="删除订单信息" style="rounded=0;whiteSpace=wrap;html=1;" vertex="1" parent="1">
          <mxGeometry x="500" y="25" width="100" height="50" as="geometry" />
        </mxCell>
        <mxCell id="4eXuHaeZLSQ8cxSmyOxy-9" style="edgeStyle=orthogonalEdgeStyle;rounded=0;orthogonalLoop=1;jettySize=auto;html=1;exitX=0.5;exitY=0;exitDx=0;exitDy=0;entryX=0.5;entryY=1;entryDx=0;entryDy=0;" edge="1" parent="1" source="4eXuHaeZLSQ8cxSmyOxy-11" target="4eXuHaeZLSQ8cxSmyOxy-8">
          <mxGeometry relative="1" as="geometry" />
        </mxCell>
        <mxCell id="4eXuHaeZLSQ8cxSmyOxy-10" style="edgeStyle=orthogonalEdgeStyle;rounded=0;orthogonalLoop=1;jettySize=auto;html=1;exitX=1;exitY=0.5;exitDx=0;exitDy=0;" edge="1" parent="1" source="4eXuHaeZLSQ8cxSmyOxy-11">
          <mxGeometry relative="1" as="geometry">
            <mxPoint x="660" y="140" as="targetPoint" />
          </mxGeometry>
        </mxCell>
        <mxCell id="4eXuHaeZLSQ8cxSmyOxy-18" style="edgeStyle=orthogonalEdgeStyle;rounded=0;orthogonalLoop=1;jettySize=auto;html=1;entryX=0;entryY=0.75;entryDx=0;entryDy=0;" edge="1" parent="1" source="4eXuHaeZLSQ8cxSmyOxy-11" target="4eXuHaeZLSQ8cxSmyOxy-17">
          <mxGeometry relative="1" as="geometry">
            <Array as="points">
              <mxPoint x="550" y="238" />
            </Array>
          </mxGeometry>
        </mxCell>
        <mxCell id="4eXuHaeZLSQ8cxSmyOxy-11" value="操作" style="rhombus;whiteSpace=wrap;html=1;" vertex="1" parent="1">
          <mxGeometry x="510" y="110" width="80" height="60" as="geometry" />
        </mxCell>
        <mxCell id="4eXuHaeZLSQ8cxSmyOxy-12" value="结束" style="rounded=1;whiteSpace=wrap;html=1;" vertex="1" parent="1">
          <mxGeometry x="680" y="30" width="70" height="40" as="geometry" />
        </mxCell>
        <mxCell id="4eXuHaeZLSQ8cxSmyOxy-13" style="edgeStyle=orthogonalEdgeStyle;rounded=0;orthogonalLoop=1;jettySize=auto;html=1;exitX=0.5;exitY=0;exitDx=0;exitDy=0;entryX=0.5;entryY=1;entryDx=0;entryDy=0;" edge="1" parent="1" source="4eXuHaeZLSQ8cxSmyOxy-14" target="4eXuHaeZLSQ8cxSmyOxy-12">
          <mxGeometry relative="1" as="geometry" />
        </mxCell>
        <mxCell id="4eXuHaeZLSQ8cxSmyOxy-14" value="保存订单信息" style="rounded=0;whiteSpace=wrap;html=1;" vertex="1" parent="1">
          <mxGeometry x="665" y="115" width="100" height="50" as="geometry" />
        </mxCell>
        <mxCell id="4eXuHaeZLSQ8cxSmyOxy-15" value="选择删除" style="text;html=1;strokeColor=none;fillColor=none;align=center;verticalAlign=middle;whiteSpace=wrap;rounded=0;" vertex="1" parent="1">
          <mxGeometry x="550" y="80" width="60" height="30" as="geometry" />
        </mxCell>
        <mxCell id="4eXuHaeZLSQ8cxSmyOxy-16" value="选择编辑、添加" style="text;html=1;strokeColor=none;fillColor=none;align=center;verticalAlign=middle;whiteSpace=wrap;rounded=0;" vertex="1" parent="1">
          <mxGeometry x="590" y="150" width="70" height="30" as="geometry" />
        </mxCell>
        <mxCell id="4eXuHaeZLSQ8cxSmyOxy-22" style="edgeStyle=orthogonalEdgeStyle;rounded=0;orthogonalLoop=1;jettySize=auto;html=1;exitX=1;exitY=0.5;exitDx=0;exitDy=0;entryX=1;entryY=0.5;entryDx=0;entryDy=0;" edge="1" parent="1" source="4eXuHaeZLSQ8cxSmyOxy-17" target="4eXuHaeZLSQ8cxSmyOxy-12">
          <mxGeometry relative="1" as="geometry" />
        </mxCell>
        <mxCell id="4eXuHaeZLSQ8cxSmyOxy-17" value="更改订单状态" style="rounded=0;whiteSpace=wrap;html=1;" vertex="1" parent="1">
          <mxGeometry x="665" y="200" width="100" height="50" as="geometry" />
        </mxCell>
      </root>
    </mxGraphModel>
  </diagram>
</mxfile>
